<svg width="96" height="96" viewBox="0 0 96 96" fill="none" xmlns="http://www.w3.org/2000/svg">
<rect width="96" height="96" fill="#1858B8"/>
<path d="M65.83 42.2129L63.3235 43.3924L69.5161 64.3294L72.3913 63.2973L65.83 42.2129Z" fill="white"/>
<path d="M70.6218 34.9143L68.189 36.0201L72.7597 51.944L75.6349 50.9119L70.6218 34.9143Z" fill="white"/>
<path d="M82.6387 42.5077L80.6482 41.918L72.7599 37.937L69.8848 37.5684L72.0227 40.1486L64.2082 44.4982L57.9419 50.2485L55.0667 53.6397L56.9098 64.6243L59.1951 65.2878L56.9098 67.868L45.6303 65.7301L37.3735 63.6659L31.5495 57.7681L31.9918 55.2616L33.4662 44.2033L34.4246 41.918L29.3378 35.7991L25.3568 32.7765L19.9752 26.5101L17.0263 22.9715L16.2891 20.3912H17.0263L16.2891 18.843L24.251 20.0226L30.6648 23.7824L34.7932 29.9013L38.2582 31.0071L41.5756 25.2568L44.1559 23.2664L48.4318 22.9715L53.4448 23.7824L54.5507 24.8882L59.7112 24.3722L62.0703 23.4875L63.7659 22.9715L64.887 22.1522L60.6696 20.0226L66.4199 17.6635L69.8848 17L72.0227 17.6635L76.446 22.9715L81.0168 30.4174H79.6161L81.5328 33.2188L83.6708 36.6837L85.2926 40.9596L84.8503 42.5077H82.6387Z" fill="white"/>
<path d="M62.9549 51.9441H61.5542L64.2819 48.6266L68.9264 46.2675L75.7088 45.604L83.8182 48.258L85.2926 50.0273L77.4781 49.4375L74.3818 51.9441V59.9797L72.5387 61.0119L69.8848 58.579L70.4745 55.3353L68.1154 48.6266L62.9549 51.9441Z" fill="white"/>
<path fill-rule="evenodd" clip-rule="evenodd" d="M74.4556 78.9999C82.4765 78.9999 88.9788 71.9036 88.9788 63.1497C88.9788 54.3959 82.4765 47.2996 74.4556 47.2996C66.4346 47.2996 59.9324 54.3959 59.9324 63.1497C59.9324 71.9036 66.4346 78.9999 74.4556 78.9999ZM72.7599 75.019C78.46 75.019 83.0809 69.573 83.0809 62.8549C83.0809 56.1369 78.46 50.6908 72.7599 50.6908C67.0597 50.6908 62.4388 56.1369 62.4388 62.8549C62.4388 69.573 67.0597 75.019 72.7599 75.019Z" fill="white"/>
<path fill-rule="evenodd" clip-rule="evenodd" d="M19.2379 67.7944C25.5081 67.7944 30.5911 61.1931 30.5911 53.05C30.5911 44.9069 25.5081 38.3057 19.2379 38.3057C12.9677 38.3057 7.88477 44.9069 7.88477 53.05C7.88477 61.1931 12.9677 67.7944 19.2379 67.7944ZM17.1 62.9286C20.8865 62.9286 23.9561 58.2087 23.9561 52.3864C23.9561 46.5641 20.8865 41.8442 17.1 41.8442C13.3134 41.8442 10.2438 46.5641 10.2438 52.3864C10.2438 58.2087 13.3134 62.9286 17.1 62.9286Z" fill="white"/>
<path d="M12.824 37.6421L25.4304 54.377L26.4625 53.6398L29.8538 55.3354L38.5529 62.1915L35.1617 64.0345L28.2319 63.7397L22.9976 58.0631L23.5137 57.2521L19.3853 53.05L18.4269 53.2712L7.95838 44.7194L7 42.8764V38.5268L7.95838 37.3473C8.30242 37.1998 9.10844 36.9049 9.58026 36.9049C9.9931 36.669 11.9148 37.2981 12.824 37.6421Z" fill="white"/>
<path d="M13.9299 53.8609V51.2069H15.4044L17.7635 50.1011L20.1963 45.3092L23.1452 44.4245L18.5744 39.3377L16.6576 36.61L17.0262 35.7991L23.5138 36.61L27.6422 38.6742L31.6232 42.1391L37.1523 43.8347L35.6779 52.7551L27.1999 50.396L23.5138 51.5755L20.27 53.7503L17.0262 53.8609H13.9299Z" fill="white"/>
<path d="M74.8712 47.8485L81.6536 40.7712L72.6596 31.9983L56.3671 37.0114L51.2803 63.6249L59.0948 65.0994L61.3071 58.0882L68.5312 50.6499L74.8712 47.8485Z" stroke="white" stroke-width="2"/>
<mask id="mask0" mask-type="alpha" maskUnits="userSpaceOnUse" x="51" y="31" width="31" height="35">
<path d="M74.8712 47.8485L81.6536 40.7712L72.6596 31.9983L56.3671 37.0114L51.2803 63.6249L59.0948 65.0994L61.3071 58.0882L68.5312 50.6499L74.8712 47.8485Z" fill="#7D99C4"/>
</mask>
<g mask="url(#mask0)">
<rect x="50.6467" y="32.4209" width="31.8977" height="0.422487" fill="white"/>
<rect x="50.6467" y="33.8994" width="31.8977" height="0.422487" fill="white"/>
<rect x="50.6467" y="35.3782" width="31.8977" height="0.422487" fill="white"/>
<rect x="50.6467" y="36.8569" width="31.8977" height="0.422487" fill="white"/>
<rect x="50.6467" y="38.3357" width="31.8977" height="0.422487" fill="white"/>
<rect x="50.6467" y="39.8142" width="31.8977" height="0.422487" fill="white"/>
<rect x="50.6467" y="41.293" width="31.8977" height="0.422487" fill="white"/>
<rect x="50.6467" y="42.7717" width="31.8977" height="0.422487" fill="white"/>
<rect x="50.6467" y="44.2505" width="31.8977" height="0.422487" fill="white"/>
<rect x="50.6467" y="45.729" width="31.8977" height="0.422487" fill="white"/>
<rect x="50.6467" y="47.2078" width="31.8977" height="0.422487" fill="white"/>
<rect x="50.6467" y="48.6865" width="31.8977" height="0.422487" fill="white"/>
<rect x="50.6467" y="50.1653" width="31.8977" height="0.422487" fill="white"/>
<rect x="50.6467" y="51.644" width="31.8977" height="0.422487" fill="white"/>
<rect x="50.6467" y="53.1226" width="31.8977" height="0.422487" fill="white"/>
<rect x="50.6467" y="54.6013" width="31.8977" height="0.422487" fill="white"/>
<rect x="50.6467" y="56.0801" width="31.8977" height="0.422487" fill="white"/>
<rect x="50.6467" y="57.5588" width="31.8977" height="0.422487" fill="white"/>
<rect x="50.6467" y="59.0374" width="31.8977" height="0.422487" fill="white"/>
<rect x="50.6467" y="60.5161" width="31.8977" height="0.422487" fill="white"/>
<rect x="50.6467" y="61.9949" width="31.8977" height="0.422487" fill="white"/>
<rect x="50.6467" y="63.4736" width="31.8977" height="0.422487" fill="white"/>
<rect x="50.6467" y="64.9524" width="31.8977" height="0.422487" fill="white"/>
</g>
</svg>
