<svg width="30" height="30" viewBox="0 0 30 30" fill="none" xmlns="http://www.w3.org/2000/svg">
<g clip-path="url(#clip0)">
<circle cx="15" cy="15" r="14" fill="#2F80ED" stroke="white" stroke-width="2"/>
<path d="M12.78 8.624L13.764 8.336C14.4947 9.808 14.86 11.536 14.86 13.52H13.796C13.796 12.6613 13.7053 11.8053 13.524 10.952C13.348 10.0987 13.1 9.32267 12.78 8.624ZM9.764 8.512C9.51867 9.35467 9.396 10.2507 9.396 11.2C9.396 11.792 9.48933 12.2907 9.676 12.696C9.868 13.1013 10.0573 13.304 10.244 13.304C10.3773 13.304 10.556 13.152 10.78 12.848C11.004 12.544 11.2253 12.1093 11.444 11.544L12.38 11.904C12.1133 12.6773 11.772 13.2827 11.356 13.72C10.94 14.1573 10.5427 14.376 10.164 14.376C9.71067 14.376 9.28933 14.0667 8.9 13.448C8.516 12.8293 8.324 12.08 8.324 11.2C8.324 10.1973 8.45733 9.26133 8.724 8.392L9.764 8.512ZM16.38 8.376H19.556V7.6H20.564V8.376H22.62V9.28H20.564V9.976H22.324V10.864H20.564V12.16C21.14 12.4853 21.7693 12.9573 22.452 13.576L21.82 14.28C21.388 13.8747 20.956 13.52 20.524 13.216C20.444 13.664 20.252 13.9867 19.948 14.184C19.6493 14.3813 19.2067 14.48 18.62 14.48C18.0547 14.48 17.6093 14.3467 17.284 14.08C16.964 13.8187 16.804 13.4533 16.804 12.984C16.804 12.5627 16.9507 12.224 17.244 11.968C17.5427 11.7067 18.0013 11.576 18.62 11.576C18.94 11.576 19.252 11.6213 19.556 11.712V10.864H16.676V9.976H19.556V9.28H16.38V8.376ZM19.556 12.656C19.2413 12.528 18.964 12.464 18.724 12.464C18.4093 12.464 18.1827 12.5067 18.044 12.592C17.9107 12.6773 17.844 12.808 17.844 12.984C17.844 13.1707 17.9107 13.3173 18.044 13.424C18.1827 13.5253 18.3747 13.576 18.62 13.576C18.9827 13.576 19.228 13.512 19.356 13.384C19.4893 13.256 19.556 13.0133 19.556 12.656ZM8.564 16.296H14.324V21.944H8.564V20.984H13.26V17.256H8.564V16.296ZM16.564 16.296H22.324V21.944H16.564V20.984H21.26V17.256H16.564V16.296Z" fill="white"/>
</g>
<defs>
<clipPath id="clip0">
<rect width="30" height="30" fill="white"/>
</clipPath>
</defs>
</svg>
